# xmcd CD database file
#
# Track frame offsets:
#	150
#	20512
#	36792
#	56804
#	73828
#	95145
#	113092
#	137702
#	153663
#	174024
#
# Disc length: 2615 seconds
#
# Revision: 0
# Processed by: cddbd v1.5.1PL2 Copyright (c) Steve Scherf et al.
# Submitted via: CDex 1.51
#
DISCID=880a350a
DTITLE=The Poems - Young America
DYEAR=2006
DGENRE=Salsa
TTITLE0=Sometime Somewhere Someone Should Say Something
TTITLE1=So Soon
TTITLE2=See the Sunrise
TTITLE3=Blue Eyes Coming
TTITLE4=Ballad of a Bitter End
TTITLE5=I am a Believer
TTITLE6=Can You Come for Me
TTITLE7=No Sign of Life
TTITLE8=I Just Want Out of Here
TTITLE9=Lost and Found
EXTD=YEAR: 2006
EXTT0=
EXTT1=
EXTT2=
EXTT3=
EXTT4=
EXTT5=
EXTT6=
EXTT7=
EXTT8=
EXTT9=
PLAYORDER=
